<mxfile host="app.diagrams.net" modified="2023-04-24T17:01:40.801Z" agent="Mozilla/5.0 (Windows NT 10.0; Win64; x64) AppleWebKit/537.36 (KHTML, like Gecko) Chrome/112.0.0.0 Safari/537.36" version="21.2.1" etag="SMXI7IvDORSz-2GzkR9-" type="github">
  <diagram name="PÃ¡gina-1" id="JMca9dNSk5J-lne6B-Tl">
    <mxGraphModel>
      <root>
        <mxCell id="0" />
        <mxCell id="1" parent="0" />
      </root>
    </mxGraphModel>
  </diagram>
</mxfile>
